PathFileType	4	(X/Y/Z)	RBDS017\RBDS017runT45.trc
DataRate	CameraRate	NumFrames	NumMarkers	Units	OrigDataRate	OrigDataStartFrame	OrigNumFrames
150.000000	150.000000	5	33	mm	150.000000	0	4500
Frame#	Time	L.ASIS			L.Heel.Bottom			L.Heel.Lateral			L.Heel.Top			L.Iliac.Crest			L.MT1			L.MT5			L.PSIS			L.Shank.Bottom.Lateral			L.Shank.Bottom.Medial			L.Shank.Top.Lateral			L.Shank.Top.Medial			L.Thigh.Bottom.Lateral			L.Thigh.Bottom.Medial			L.Thigh.Top.Lateral			L.Thigh.Top.Medial			R.ASIS			R.ASY			R.Heel.Bottom			R.Heel.Lateral			R.Heel.Top			R.Iliac.Crest			R.MT1			R.MT5			R.PSIS			R.Shank.Bottom.Lateral			R.Shank.Bottom.Medial			R.Shank.Top.Lateral			R.Shank.Top.Medial			R.Thigh.Bottom.Lateral			R.Thigh.Bottom.Medial			R.Thigh.Top.Lateral			R.Thigh.Top.Medial			
		X1	Y1	Z1	X2	Y2	Z2	X3	Y3	Z3	X4	Y4	Z4	X5	Y5	Z5	X6	Y6	Z6	X7	Y7	Z7	X8	Y8	Z8	X9	Y9	Z9	X10	Y10	Z10	X11	Y11	Z11	X12	Y12	Z12	X13	Y13	Z13	X14	Y14	Z14	X15	Y15	Z15	X16	Y16	Z16	X17	Y17	Z17	X18	Y18	Z18	X19	Y19	Z19	X20	Y20	Z20	X21	Y21	Z21	X22	Y22	Z22	X23	Y23	Z23	X24	Y24	Z24	X25	Y25	Z25	X26	Y26	Z26	X27	Y27	Z27	X28	Y28	Z28	X29	Y29	Z29	X30	Y30	Z30	X31	Y31	Z31	X32	Y32	Z32	X33	Y33	Z33	

1	0	2196.814633834264	1053.065989393786	893.984180714554	1411.966202699251	561.7984503791821	980.8148610233126	1421.39659110581	542.6697670319725	939.4464058026064	1455.678887692507	550.7446070867502	973.0796277214408	2158.454898090159	1168.099748307775	867.8687637114881	1422.734105306874	331.7003265001699	990.5524324294501	1388.161816535613	379.9428356526436	892.8735190428494	2033.709002053281	1140.595163523997	980.8490220803053	1555.596986014289	509.5280478080071	901.5166409363586	1547.599490320613	549.6242054865039	939.2951772322876	1629.428869915095	540.3303722604583	887.2876498453502	1620.985783269091	580.3096054228968	922.2406184965013	1974.513155298359	694.2472716744531	850.6321507448316	1916.056064451827	713.3603678685522	889.3802135672066	1999.628781614262	801.6736262247962	844.006540713748	1946.047855197725	819.2616539351502	883.7673654634245	2188.211181048952	1057.700916703262	1169.878933019071	2520.880437233002	151.2138640849071	1137.956940122837	2340.951723125178	68.45065853172076	1082.991595732169	2355.192673719741	82.58777495367787	1130.348449343309	2339.201586831953	113.7447254953584	1096.938475421821	2128.918866687191	1149.464745113131	1214.974899091175	2553.457733930108	140.9198610054403	1089.947869670855	2513.253213525479	88.49321749141649	1187.341561238761	2025.625082621807	1134.178348210502	1082.043549194427	2355.914980450383	237.4269319380508	1162.222394214503	2325.237096967249	234.2167050801592	1120.659075826692	2329.769925147258	317.6564358052054	1173.253399563796	2297.002262022709	309.2699331102808	1131.544114971859	2249.192943013488	694.3012949322315	1193.558312770853	2198.628371933678	664.3960716140432	1149.698488582396	2184.574631804419	782.477577192028	1202.723194784791	2136.059469697417	753.9644978265247	1162.500953823707	
2	0.006666666666666667	2197.414016069904	1050.302366877806	894.622041832472	1424.182074371961	581.0844367369001	982.1876490911162	1432.036924932934	561.7846961338885	940.7349095548644	1467.142316049819	567.983914801325	973.9610290811642	2156.639409895629	1165.149198287802	867.7623230451878	1422.625441024048	351.9794234855595	991.9610855571489	1390.290227416621	401.8878111859522	894.4137162618701	2033.518643360261	1135.488502443185	980.145786814238	1563.840312041008	521.4182379853332	901.9426277489338	1557.995511661179	561.7513228163516	939.5870369980945	1638.615816620134	547.9869513660083	887.1484464243082	1632.511475940885	588.3087345964723	922.0263529366686	1980.478731325562	687.9598181667591	849.0539809763744	1921.752293324925	705.607553107901	888.2115480491825	2003.532174686915	795.810995531603	843.2191769839009	1949.870542792306	811.9773236691539	883.4859784246059	2187.824789613011	1054.924982726747	1171.227732205239	2516.802403647553	142.4113607120914	1137.859862121725	2336.607566169238	62.19391292232284	1080.478238799575	2350.431755001512	75.57602999898549	1128.179405913591	2335.208734464428	107.3846028285832	1094.981608396579	2127.101393689205	1146.121347426875	1215.440681955216	2549.740536496609	132.0049143915326	1089.814980016283	2507.904928949013	79.53384835196972	1186.673823004214	2024.946049589737	1128.690941663179	1081.004494457335	2351.441224178134	229.7797137247594	1161.433291713912	2321.069177041896	226.617218045317	1119.628894627574	2325.019742456376	310.1330653352027	1172.547102196579	2292.539790390596	301.7623198859527	1130.477055250129	2245.571082050737	688.6481075179671	1193.656323966836	2194.852804457473	659.4619309547037	1149.633519389363	2182.064340121083	777.6097444814657	1202.841729518041	2133.414432519267	749.7968690678181	1162.413480263548	
3	0.01333333333333333	2197.978420703487	1047.382795750266	895.2669581486049	1436.792504501761	599.7976856766571	983.6501498225992	1443.137752574891	580.3746842937718	942.1136791021871	1478.998389017537	584.6946186101416	974.9467975805102	2154.964053316557	1161.962875540579	867.6533635476361	1423.174507511276	371.7522488598932	993.174463135279	1393.116582400274	423.3743477955155	895.8131736523977	2033.295539967802	1130.287065402028	979.4432274312455	1572.501312985277	532.9640977637473	902.3740001552276	1568.803133041523	573.461361911163	939.9319526452997	1648.174721380324	555.356180755022	887.0272854935605	1644.387734213211	595.9327051701617	921.8760286291581	1986.545278764716	681.5712850249613	847.4469253120777	1927.592945615834	697.716714322878	887.0450381347157	2007.501744992953	789.8363385842796	842.415735098305	1953.782009112663	804.5576540914462	883.1923172941304	2187.433417467269	1051.991923873743	1172.49978533824	2511.719306911232	133.6415120033056	1137.508086842039	2331.097142742848	56.15701155561033	1077.966004551969	2344.569501758422	68.88730704167186	1125.958971107495	2330.165994468171	101.260467343503	1092.892619011724	2125.436234272077	1142.654477656955	1215.912945496774	2544.971827814751	122.9556860442712	1089.475528235574	2501.465589701979	70.83285226333078	1185.926806714963	2024.269897920052	1123.198040176843	1080.015465400073	2346.32274479841	222.2466420205468	1160.486585028094	2316.179049533649	219.2380262352634	1118.508718605668	2319.864816960093	302.7490983367039	1171.762524847554	2287.586819783043	294.5128980383299	1129.409479675935	2242.013275740025	683.0326939758938	1193.75972722258	2191.15427116941	654.5203625396813	1149.588918940728	2179.557368439516	772.7193364671467	1202.981626659574	2130.776627007509	745.5684895828206	1162.359397060156	
4	0.02	2198.461605851468	1044.128115901611	895.9370181265548	1450.169383607359	617.4522732761639	985.2587634247525	1455.135960635569	597.9890648016519	943.6405351541086	1491.61452029267	600.4268297935835	976.1179794884174	2153.577740563414	1158.308561466355	867.5519677882141	1424.971477720587	390.5857995434209	994.0235917084983	1397.276566560255	444.0013961665755	896.9416617639413	2032.994839785278	1124.898757248764	978.7449313317964	1581.972808220763	543.8616753429402	902.8082747129431	1580.413094401848	584.3850565082154	940.3679685519681	1658.456406132252	562.1750833991784	886.9316878492273	1656.950864784391	602.8400315113423	921.8371184137013	1992.811303477164	674.9603790947257	845.7790006216658	1933.713283214968	689.534115231213	885.8752890718266	2011.600789390003	783.6257003863228	841.5745025226088	1957.864089429244	796.8585338610933	882.8694150462325	2187.015101220713	1048.755084230383	1173.639883406434	2504.724732727163	124.9602186666122	1136.680525618269	2323.391731888765	50.53935319447876	1075.461912534346	2336.631879772632	62.81555772857542	1123.645446745724	2323.142333586301	95.58414055628232	1090.55768926659	2124.043067389931	1138.930332561768	1216.391294256739	2538.210555202659	113.6910910327829	1088.754835844286	2492.964944163683	62.64651668179264	1185.035317111879	2023.584407965929	1117.684010825742	1079.116801796916	2340.000997242726	214.9392903387354	1159.239834821549	2309.937255545583	212.2890305601307	1117.223123555608	2313.970584590013	295.6348017912084	1170.826191920279	2281.728852352661	287.7619137397532	1128.343207282212	2238.602177476019	677.4806418656533	1193.867680747712	2187.627291804247	649.5567168451754	1149.5736021498	2177.074344302882	767.7797691272962	1203.159905470809	2128.171832227016	741.2166002965913	1162.36563014945	
5	0.02666666666666667	2198.814589830578	1040.389169983776	896.6525213142072	1464.588185594802	633.6414319255159	987.0322902306434	1468.360092112857	614.2413703930019	945.3354314475899	1505.265705371159	614.8051470963242	977.5178415744517	2152.601870612861	1153.995837569883	867.4720240533446	1428.486444341741	408.1050614382031	994.3896803364772	1403.27112978717	463.3994307998746	897.6997791679884	2032.567530878654	1119.265987414808	978.0656490688646	1592.56442400842	553.8470982767873	903.2352402503434	1593.127212030037	594.2123086620546	940.9111086454315	1669.735318969466	568.2169877061842	886.8580291934535	1670.459876082302	608.7486909820532	921.9321728416611	1999.361900983829	668.0466819926199	844.0305230757826	1940.22362652082	680.9558934614215	884.6959395417022	2015.884073557391	777.0951542495931	840.6815507565057	1962.183192143267	788.7816918888394	882.5022734540864	2186.533938078429	1045.103155313189	1174.612097843443	2495.108245390599	116.4735515583104	1135.219930479154	2312.710655439129	45.51333494341037	1072.977932185721	2325.876750749757	57.60930407153589	1121.212409410758	2313.419001302927	90.53653579168352	1087.895677830136	2123.011430431989	1134.833120925294	1216.869969295611	2528.724970827375	104.2301370351482	1087.536022149589	2481.660779324741	55.22239023172481	1183.955637828944	2022.864283994658	1112.147855657289	1078.344218599069	2332.04076923454	207.9867245317066	1157.581895145279	2301.85796418743	205.9761374260145	1115.714224567663	2307.077328216297	288.9274000596944	1169.676451146547	2274.64819167065	281.7326445360831	1127.274472527712	2235.403861138926	672.0249813564271	1193.977862202137	2184.350896099807	644.5773351790588	1149.584647746125	2174.633332696908	762.7859310285448	1203.387262193297	2125.623973307981	736.7099366255667	1162.447404146955	
